<?xml version="1.0" encoding="UTF-8"?>
    <svg id="Capa_1" xmlns="http://www.w3.org/2000/svg" viewBox="0 0 360 360">

        <circle class="cls-2" cx="170" cy="178.45" r="150.5"/>
        <g id="vert3b-thumb">
            <path id="Shape" class="cls-1" d="m270.61,176.12c0-20.59-22.41-38-55.68-46.34-8.14-34.05-25.18-56.97-45.29-56.97s-37.14,22.96-45.3,57.04c-4.71,1.2-9.26,2.58-13.59,4.16-1.88.69-2.86,2.8-2.18,4.72.67,1.92,2.74,2.92,4.62,2.24,3.04-1.11,6.21-2.08,9.45-2.98-.41,2.27-.77,4.53-1.11,6.84h.19c-3.33,22.19-3.12,44.79.61,66.91h-.09c.15.81.28,1.65.43,2.49v.04c-27.7-7.79-46.71-22.1-46.72-38.07,0-8.41,5.43-16.79,15.41-24.01l-1.15,6.06h0c-.19.97,0,1.97.54,2.79.54.82,1.37,1.38,2.32,1.57h0c.23.05.46.07.69.07,1.72-.02,3.2-1.26,3.54-2.99l2.9-15.36h0c.18-.96-.01-1.95-.55-2.76-.53-.81-1.36-1.37-2.3-1.55h0l-15.07-3.11c-1.94-.41-3.85.84-4.3,2.82-.1.48-.1.98,0,1.46.26,1.46,1.35,2.63,2.77,2.95h.17l7.05,1.4c-12.44,8.79-19.31,19.49-19.31,30.6h0c0,20.59,22.41,38,55.68,46.35,8.16,34.04,25.18,56.96,45.29,56.96,11.18,0,21.93-7.46,30.61-20.88l.9,7.36c.24,2.02,2.04,3.46,4.01,3.22,1.98-.25,3.38-2.08,3.14-4.11h0l-1.82-15.54c-.11-.97-.6-1.86-1.35-2.46-.75-.61-1.71-.88-2.66-.76h0l-15.19,1.87c-1.97.25-3.38,2.09-3.14,4.1h0c.24,2.02,2.03,3.46,4.01,3.22l5.99-.74c-7.26,11.15-15.84,17.31-24.45,17.31-15.61,0-29.58-19.46-37.21-47.77,12.27,2.37,24.73,3.55,37.21,3.51,12.51.04,24.99-1.15,37.28-3.53-.89,3.31-1.82,6.56-2.91,9.66-.16.47-.23.96-.19,1.45.09,1.76,1.38,3.2,3.08,3.45s3.34-.77,3.91-2.43h0c1.54-4.43,2.89-9.09,4.07-13.91,33.31-8.35,55.75-25.76,55.75-46.35h0l-.03.03Zm-53.98,38.09c2.35-12.55,3.52-25.3,3.49-38.08h0c.04-12.77-1.11-25.51-3.43-38.06,27.69,7.8,46.7,22.1,46.71,38.07,0,15.97-19.05,30.27-46.76,38.07h0Zm-84.21-86.17c7.61-28.35,21.6-47.83,37.22-47.83s29.58,19.45,37.21,47.78c-1.12-.22-2.22-.41-3.34-.62v.14c-11.19-2.01-22.53-3.03-33.89-3.03-10.91.03-21.79,1-32.54,2.89l.07-.2c-1.57.28-3.15.57-4.73.88Zm76.36,8.03c2.77,13.16,4.15,26.6,4.12,40.06.04,13.45-1.31,26.88-4.05,40.04-12.89,2.84-26.04,4.26-39.22,4.22-13.16.04-26.29-1.38-39.15-4.21v-.15c-5.48-26.38-5.48-53.65,0-80.04,25.82-5.54,52.49-5.52,78.3.07h0Z"/>
            <path id="Path" class="cls-3" d="m122.61,187.91c4.2,4.12,9.83,6.44,15.7,6.49,6.91,0,10.75-2.98,10.75-7.34,0-4.61-3.51-6.75-11.43-6.75-2.39,0-6.24,0-7.09.09v-10.59c1.02.08,4.86.08,7.09.08,6.31,0,10.5-2.05,10.5-6.31,0-4.52-4.61-6.83-10.58-6.83-5.43,0-10.65,2.14-14.51,5.97l-5.98-7.51c5.57-6.07,13.53-9.38,21.76-9.06,13.31,0,21.51,5.97,21.51,15.44-.45,6.78-5.7,12.26-12.46,12.98,7.27.48,13.01,6.37,13.31,13.65,0,9.81-8.79,16.73-22.44,16.73-8.47.46-16.7-2.88-22.45-9.12l6.32-7.94Z"/>
            <path id="Shape-2" class="cls-3" d="m170.32,147.04h22.45c17.83,0,30.21,11.35,30.21,28.51s-12.38,28.42-30.21,28.42h-22.45v-56.93Zm22.45,46.26c4.78.23,9.44-1.56,12.84-4.94,3.39-3.38,5.21-8.03,4.99-12.81.36-4.83-1.41-9.58-4.83-13-3.42-3.43-8.17-5.19-13-4.84h-10.33v35.59h10.33Z"/>
        </g>
    </svg>